#!OML:ASF H:\Not Pregnant\Project 1\Capture day 1\Session 1\non-pregnant.ASF
:FULLY-SPECIFIED
:DEGREES
242
root -5.66553 16.327 34.9045 147.255 -84.0171 -135.506
lowerback -13.9174 2.89169 3.50402
upperback -6.86968 3.03669 -0.359584
thorax 0.760051 1.28038 -1.91094
lowerneck 20.0297 -6.47085 -32.1549
upperneck -1.59741 -18.3022 42.4133
head 4.00608 -12.1616 23.5234
rclavicle -6.85807e-015 4.77083e-015
rhumerus -36.6132 6.60475 -91.8331
rradius 68.7868
rwrist 11.176
rhand -0.0433747 -6.57836
rfingers 7.12502
rthumb 25.5488 -34.8851
lclavicle -6.85807e-015 4.77083e-015
lhumerus -42.1934 -13.2625 93.5124
lradius 70.5635
lwrist 33.4713
lhand -9.32797 -3.62378
lfingers 7.12502
lthumb 16.6307 25.6837
rfemur 0 0 0
rtibia 0
rfoot 0 0
rtoes 0
lfemur -14.7778 5.43359 -16.3753
ltibia 14.8081
lfoot -13.2689 -6.60805
ltoes -16.2382
243
root -5.66892 16.3268 34.9052 147.151 -84.0504 -135.409
lowerback -13.9278 2.91564 3.46948
upperback -6.8471 3.07291 -0.339247
thorax 0.788768 1.30097 -1.86403
lowerneck 19.9527 -6.54664 -32.1493
upperneck -1.64578 -18.3714 42.3977
head 4.03913 -12.1844 23.4699
rclavicle 4.42296e-015 -2.38542e-015
rhumerus -36.9759 6.04903 -91.7911
rradius 65.6638
rwrist 11.8243
rhand -0.832 -6.45275
rfingers 7.12502
rthumb 24.7932 -34.8656
lclavicle 4.42296e-015 -2.38542e-015
lhumerus -42.243 -13.0043 93.8095
lradius 66.5314
lwrist 33.7783
lhand -9.40407 -2.69551
lfingers 7.12502
lthumb 16.5574 26.6181
rfemur 0 0 0
rtibia 0
rfoot 0 0
rtoes 0
lfemur -14.752 5.43319 -16.395
ltibia 14.7851
lfoot -13.2722 -6.63719
ltoes -16.2674
244
root -5.6726 16.3267 34.906 146.974 -84.0854 -135.235
lowerback -13.938 2.93938 3.44834
upperback -6.82017 3.10747 -0.319405
thorax 0.822449 1.32066 -1.82527
lowerneck 19.8752 -6.61742 -32.1553
upperneck -1.71792 -18.4322 42.4008
head 4.06696 -12.2051 23.4369
rclavicle -6.90777e-015 -3.97569e-016
rhumerus -37.2994 5.41016 -91.6901
rradius 62.5088
rwrist 12.4908
rhand -1.83448 -6.10182
rfingers 7.12502
rthumb 23.8321 -34.6435
lclavicle -6.90777e-015 -3.97569e-016
lhumerus -42.2548 -12.767 94.1068
lradius 62.4534
lwrist 34.1422
lhand -9.75265 -2.1862
lfingers 7.12502
lthumb 16.2218 27.1551
rfemur 0 0 0
rtibia 0
rfoot 0 0
rtoes 0
lfemur -14.7328 5.42054 -16.4093
ltibia 14.769
lfoot -13.2788 -6.6601
ltoes -16.2931
245
root -5.67667 16.3263 34.9076 146.689 -84.113 -134.959
lowerback -13.9373 2.96746 3.45825
upperback -6.78691 3.14501 -0.303408
thorax 0.858812 1.34148 -1.80772
lowerneck 19.7981 -6.6782 -32.1839
upperneck -1.8113 -18.4848 42.4351
head 4.09442 -12.2265 23.4395
rclavicle 1.1281e-014 -1.55052e-014
rhumerus -37.5731 4.67341 -91.5355
rradius 59.3255
rwrist 13.0396
rhand -2.96841 -5.65307
rfingers 7.12502
rthumb 22.7443 -34.3324
lclavicle 1.1281e-014 -1.55052e-014
lhumerus -42.2411 -12.5625 94.4019
lradius 58.3511
lwrist 34.5293
lhand -10.3537 -2.05066
lfingers 7.12502
lthumb 15.643 27.3369
rfemur 0 0 0
rtibia 0
rfoot 0 0
rtoes 0
lfemur -14.7097 5.37522 -16.4082
ltibia 14.7662
lfoot -13.2898 -6.64742
ltoes -16.3271
246
root -5.68145 16.3254 34.9098 146.333 -84.1366 -134.624
lowerback -13.9257 2.99047 3.4837
upperback -6.74715 3.17473 -0.282698
thorax 0.89622 1.35846 -1.79541
lowerneck 19.7196 -6.72729 -32.2201
upperneck -1.92214 -18.5172 42.481
head 4.111 -12.2386 23.4588
rclavicle -1.08338e-014 2.78299e-015
rhumerus -37.7926 3.88563 -91.3305
rradius 56.1161
rwrist 13.3604
rhand -4.18985 -5.18529
rfingers 7.12502
rthumb 21.5716 -34.0039
lclavicle -1.08338e-014 2.78299e-015
lhumerus -42.2193 -12.3643 94.6938
lradius 54.2446
lwrist 34.875
lhand -11.1553 -2.2504
lfingers 7.12502
lthumb 14.8708 27.1959
rfemur 0 0 0
rtibia 0
rfoot 0 0
rtoes 0
lfemur -14.6772 5.29958 -16.3985
ltibia 14.7786
lfoot -13.3089 -6.60116
ltoes -16.3836
247
root -5.68666 16.3243 34.9123 145.916 -84.1567 -134.235
lowerback -13.9052 3.01086 3.52823
upperback -6.70473 3.19943 -0.267914
thorax 0.932654 1.37262 -1.80099
lowerneck 19.6417 -6.77176 -32.2303
upperneck -2.05303 -18.5287 42.5302
head 4.10878 -12.2397 23.4764
rclavicle 1.13307e-014 3.97569e-016
rhumerus -37.953 3.001 -91.0791
rradius 52.8864
rwrist 13.4311
rhand -5.4844 -4.77335
rfingers 7.12502
rthumb 20.3279 -33.7295
lclavicle 1.13307e-014 3.97569e-016
lhumerus -42.1996 -12.1694 94.956
lradius 50.1624
lwrist 35.1831
lhand -12.0267 -2.73504
lfingers 7.12502
lthumb 14.0313 26.7714
rfemur 0 0 0
rtibia 0
rfoot 0 0
rtoes 0
lfemur -14.645 5.22773 -16.3832
ltibia 14.8058
lfoot -13.3397 -6.55673
ltoes -16.4559
248
root -5.69228 16.323 34.9148 145.496 -84.1723 -133.84
lowerback -13.8841 3.02132 3.57541
upperback -6.6602 3.21064 -0.249657
thorax 0.970227 1.38012 -1.80644
lowerneck 19.5496 -6.81149 -32.2135
upperneck -2.1945 -18.513 42.5684
head 4.08719 -12.2229 23.4797
rclavicle 8.44835e-016 1.39149e-014
rhumerus -38.0478 1.9982 -90.7654
rradius 49.6436
rwrist 13.2785
rhand -6.74646 -4.40143
rfingers 7.12502
rthumb 19.1147 -33.4821
lclavicle 8.44835e-016 1.39149e-014
lhumerus -42.1928 -11.937 95.1782
lradius 46.1426
lwrist 35.3995
lhand -12.8714 -3.42764
lfingers 7.12502
lthumb 13.2171 26.1334
rfemur 0 0 0
rtibia 0
rfoot 0 0
rtoes 0
lfemur -14.6171 5.17247 -16.3661
ltibia 14.8409
lfoot -13.3769 -6.52536
ltoes -16.5133
249
root -5.69808 16.3219 34.9172 145.099 -84.1922 -133.457
lowerback -13.8703 3.01782 3.62085
upperback -6.61788 3.20302 -0.232033
thorax 1.00817 1.37809 -1.81419
lowerneck 19.4446 -6.84605 -32.1679
upperneck -2.34259 -18.4712 42.5953
head 4.04732 -12.189 23.4684
rclavicle -1.12313e-014 1.19271e-015
rhumerus -38.0887 0.895412 -90.3815
rradius 46.4113
rwrist 12.9337
rhand -7.95626 -4.09194
rfingers 7.12502
rthumb 17.9509 -33.2835
lclavicle -1.12313e-014 1.19271e-015
lhumerus -42.2106 -11.6239 95.3255
lradius 42.2235
lwrist 35.4641
lhand -13.5396 -4.28092
lfingers 7.12502
lthumb 12.573 25.3208
rfemur 0 0 0
rtibia 0
rfoot 0 0
rtoes 0
lfemur -14.6025 5.1442 -16.3573
ltibia 14.8741
lfoot -13.415 -6.52926
ltoes -16.5336
250
root -5.70397 16.3213 34.919 144.686 -84.2135 -133.038
lowerback -13.8747 2.99212 3.6492
upperback -6.5772 3.16646 -0.200234
thorax 1.05071 1.36195 -1.80131
lowerneck 19.3146 -6.86838 -32.1223
upperneck -2.4839 -18.4023 42.6155
head 4 -12.138 23.4561
rclavicle 4.42296e-015 -9.93923e-015
rhumerus -38.0824 -0.341068 -89.8903
rradius 43.2131
rwrist 12.532
rhand -9.00754 -3.76674
rfingers 7.12502
rthumb 16.9392 -33.0481
lclavicle 4.42296e-015 -9.93923e-015
lhumerus -42.2579 -11.1518 95.3558
lradius 38.4446
lwrist 35.3665
lhand -13.8269 -5.32334
lfingers 7.12502
lthumb 12.296 24.2951
rfemur 0 0 0
rtibia 0
rfoot 0 0
rtoes 0
lfemur -14.6075 5.13561 -16.3484
ltibia 14.8996
lfoot -13.4504 -6.55707
ltoes -16.5446
251
root -5.70974 16.3212 34.9204 144.28 -84.2527 -132.608
lowerback -13.8904 2.9454 3.64931
upperback -6.54079 3.10441 -0.158997
thorax 1.09153 1.33344 -1.76633
lowerneck 19.1707 -6.87702 -32.0979
upperneck -2.61945 -18.3176 42.6434
head 3.95414 -12.0793 23.4612
rclavicle 9.24349e-015 3.57812e-015
rhumerus -38.0569 -1.70919 -89.275
rradius 40.0991
rwrist 12.13
rhand -9.87595 -3.46896
rfingers 7.12502
rthumb 16.1031 -32.8199
lclavicle 9.24349e-015 3.57812e-015
lhumerus -42.343 -10.4418 95.2086
lradius 34.9484
lwrist 35.3348
lhand -13.6016 -6.25745
lfingers 7.12502
lthumb 12.5132 23.3479
rfemur 0 0 0
rtibia 0
rfoot 0 0
rtoes 0
lfemur -14.6304 5.13455 -16.3556
ltibia 14.9124
lfoot -13.4791 -6.61066
ltoes -16.5345
252
root -5.7153 16.3215 34.9213 143.753 -84.3002 -132.039
lowerback -13.9113 2.87853 3.64691
upperback -6.5126 3.01507 -0.111242
thorax 1.12452 1.2909 -1.72736
lowerneck 19.0115 -6.86792 -32.1014
upperneck -2.73721 -18.2188 42.6864
head 3.91648 -12.0155 23.493
rclavicle -1.74434e-014 0
rhumerus -38.0391 -3.22763 -88.529
rradius 37.1115
rwrist 11.8724
rhand -10.5137 -3.19058
rfingers 7.12502
rthumb 15.4889 -32.5901
lclavicle -1.74434e-014 0
lhumerus -42.4877 -9.42349 94.8048
lradius 31.9555
lwrist 35.8547
lhand -12.9326 -6.54955
lfingers 7.12502
lthumb 13.1582 23.0153
rfemur 0 0 0
rtibia 0
rfoot 0 0
rtoes 0
lfemur -14.6713 5.13288 -16.3594
ltibia 14.9144
lfoot -13.5036 -6.6764
ltoes -16.5388
253
root -5.72058 16.3219 34.9213 143.175 -84.3584 -131.419
lowerback -13.9183 2.79674 3.62616
upperback -6.48841 2.90898 -0.0621249
thorax 1.14425 1.24011 -1.67991
lowerneck 18.8436 -6.84539 -32.1343
upperneck -2.8422 -18.1165 42.7539
head 3.8914 -11.9541 23.5585
rclavicle 3.21037e-014 1.19271e-014
rhumerus -38.0578 -4.95409 -87.6254
rradius 34.3012
rwrist 11.8643
rhand -10.9604 -2.99374
rfingers 7.12502
rthumb 15.0586 -32.4261
lclavicle 3.21037e-014 1.19271e-014
lhumerus -42.7055 -8.06691 94.0921
lradius 29.687
lwrist 37.4358
lhand -12.064 -5.70709
lfingers 7.12502
lthumb 13.9953 23.8018
rfemur 0 0 0
rtibia 0
rfoot 0 0
rtoes 0
lfemur -14.7106 5.13166 -16.367
ltibia 14.9082
lfoot -13.5261 -6.75274
ltoes -16.5358
